PathFileType   4   (X/Y/Z)																																																																																																																						
DataRate	CameraRate	NumFrames	NumMarkers	Units	OrigDataRate	OrigDataStartFrame	OrigNumFrames																																																																																																															
120	120	7	37	mm	120	102	116																																																																																																															
Frame#	Time	Sternum	R.Acromium	L.Acromium	Top.Head	R.ASIS	L.ASIS	V.Sacral	R.Thigh.Upper	R.Thigh.Front	R.Thigh.Rear	R.Knee.Lat	R.Knee.Med	R.Shank.Upper	R.Shank.Front	R.Shank.Rear	R.Ankle.Lat	R.Ankle.Med	R.Heel	R.Midfoot.Sup	R.Midfoot.Lat	R.Toe.Lat	R.Toe.Med	R.Toe.Tip	L.Thigh.Upper	L.Thigh.Front	L.Thigh.Rear	L.Knee.Lat	L.Knee.Med	L.Shank.Upper	L.Shank.Front	L.Shank.Rear	L.Ankle.Lat	L.Ankle.Med	L.Heel	L.Midfoot.Sup	L.Midfoot.Lat	L.Toe.Lat	L.Toe.Med	L.Toe.Tip																																																																														
 	 	X1	Y1	Z1	X2	Y2	Z2	X3	Y3	Z3	X4	Y4	Z4	X5	Y5	Z5	X6	Y6	Z6	X7	Y7	Z7	X8	Y8	Z8	X9	Y9	Z9	X10	Y10	Z10	X11	Y11	Z11	X12	Y12	Z12	X13	Y13	Z13	X14	Y14	Z14	X15	Y15	Z15	X16	Y16	Z16	X17	Y17	Z17	X18	Y18	Z18	X19	Y19	Z19	X20	Y20	Z20	X21	Y21	Z21	X22	Y22	Z22	X23	Y23	Z23	X24	Y24	Z24	X25	Y25	Z25	X26	Y26	Z26	X27	Y27	Z27	X28	Y28	Z28	X29	Y29	Z29	X30	Y30	Z30	X31	Y31	Z31	X32	Y32	Z32	X33	Y33	Z33	X34	Y34	Z34	X35	Y35	Z35	X36	Y36	Z36	X37	Y37	Z37	X38	Y38	Z38	X39	Y39	Z39
																																																																																																																						
102	0.975	1620.488933	-0.000992919	1.24E+03	1509.642783	-160.4625222	1362.206839	1513.71686	163.6853836	1375.519579	1615.511389	-9.995724821	1612.88411	1603.028174	-119.563877	899.7416105	1607.894476	121.1976851	891.6202813	1425.35213	-5.695750883	923.193037	1516.025142	-151.852957	627.8997761	1554.074053	-72.89581202	569.5125277	1489.917148	-144.0380039	530.7925762	1445.196019	-128.7803171	466.7465091	1441.349464	-28.27664901	453.3868308	1403.706865	-139.9773559	399.7771728	1457.069422	-92.759033	351.7126555	1395.392669	-148.0192813	325.0736637	1325.299037	-126.2596959	87.67461407	1335.416081	-48.83628676	97.75653677	1263.938993	-81.79932302	70.61066758	1391.507116	-50.48617332	73.91428566	1385.914009	-145.6838404	56.66187703	1464.116724	-153.7519611	31.18610957	1466.799616	-57.55224411	42.65740173	1520.804922	-85.7250635	40.1979448	1599.874986	155.8898652	667.9936537	1673.043325	93.1736068	661.4547366	1627.397691	143.1256019	581.8142515	1649.033158	130.2344758	474.0616096	1649.739383	33.90932835	474.9994065	1664.839291	146.028905	405.8914565	1710.294982	97.96343807	370.154607	1656.846571	155.397025	366.4021492	1720.244127	125.837295	101.3200306	1720.081002	46.58044596	121.8282532	1653.255582	79.29350631	75.29406242	1803.128457	55.87355549	105.6610621	1787.095298	143.3687015	102.6638511	1846.049639	152.6622596	92.70727546	1860.914768	62.03409965	95.46787499	1903.683064	84.48225282	104.2119583
103	0.98333	1630.11643	-0.000992919	1.24E+03	1519.19506	-160.4625222	1360.640752	1523.260801	163.6853836	1373.95604	1624.906696	-9.995724821	1611.384258	1612.79795	-119.563877	898.0927405	1617.658933	121.1976851	889.9682264	1435.137301	-5.695750883	921.6605114	1523.786565	-151.852957	626.2150543	1561.223383	-72.89581202	567.4334666	1496.665443	-144.0380039	529.3859246	1451.277617	-128.7803171	465.8105889	1447.291693	-28.27664901	452.4918276	1408.962713	-139.9773559	399.3824097	1461.646596	-92.759033	350.5749441	1399.602657	-148.0192813	324.8027242	1326.189691	-126.2596959	88.40906416	1336.447001	-48.83628676	98.34824664	1264.670177	-81.79932302	71.95703177	1392.265552	-50.48617332	73.94711223	1386.49512	-145.6838404	56.75320113	1464.431408	-153.7519611	30.47365705	1467.23226	-57.55224411	41.91671985	1521.209382	-85.7250635	38.90138803	1609.994011	155.8898652	666.6698224	1683.180128	93.1736068	660.3329768	1637.754587	143.1256019	580.5667498	1659.687519	130.2344758	472.8742627	1660.391152	33.90932835	473.8140063	1677.076038	146.028905	405.2049325	1723.641611	97.96343807	370.9268114	1670.338995	155.397025	365.4821278	1742.10679	125.837295	102.542661	1741.293715	46.58044596	123.0354089	1675.755142	79.29350631	74.86618476	1824.844866	55.87355549	108.870413	1808.889371	143.3687015	105.4840227	1868.068493	152.6622596	96.9646784	1882.862061	62.03409965	100.0861106	1925.404965	84.48225282	109.868104
104	0.99167	1639.785019	-0.000992919	1.24E+03	1528.758406	-160.4625222	1359.128371	1532.812474	163.6853836	1372.447218	1634.250203	-9.995724821	1609.964446	1622.70538	-119.563877	896.5423032	1627.564627	121.1976851	888.4167506	1445.049771	-5.695750883	920.1480371	1531.804467	-151.852957	624.6090724	1568.651129	-72.89581202	565.4557645	1503.715646	-144.0380039	528.0562175	1457.693837	-128.7803171	464.9383026	1453.57482	-28.27664901	451.660099	1414.545728	-139.9773559	399.0797292	1466.500625	-92.759033	349.4969807	1404.081619	-148.0192813	324.6469235	1327.17396	-126.2596959	89.36700929	1337.577417	-48.83628676	99.15311337	1265.467425	-81.79932302	73.65125773	1393.077578	-50.48617332	74.08594827	1387.098001	-145.6838404	56.96364944	1464.708181	-153.7519611	29.73610313	1467.648302	-57.55224411	41.14417668	1521.584662	-85.7250635	37.47114929	1620.222546	155.8898652	665.3602826	1693.423152	93.1736068	659.1930671	1648.182595	143.1256019	579.321778	1670.365053	130.2344758	471.680411	1671.066506	33.90932835	472.6217827	1689.182722	146.028905	404.5162419	1736.709054	97.96343807	371.5831278	1683.583844	155.397025	364.6171	1762.838014	125.837295	103.8364333	1761.439519	46.58044596	124.2975676	1697.085638	79.29350631	74.70488712	1845.405531	55.87355549	111.9237369	1829.52696	143.3687015	108.1932607	1888.876401	152.6622596	100.9550601	1903.599043	62.03409965	104.3955252	1945.920571	84.48225282	115.0947957
105	1	1649.49638	-0.000992919	1.24E+03	1538.334242	-160.4625222	1357.682069	1542.373258	163.6853836	1371.005489	1643.542559	-9.995724821	1608.637176	1632.753882	-119.563877	895.1044976	1637.615096	121.1976851	886.9801218	1455.092562	-5.695750883	918.6672153	1540.100838	-151.852957	623.0925616	1576.385261	-72.89581202	563.5927211	1511.098265	-144.0380039	526.810235	1464.480366	-128.7803171	464.1312946	1460.235699	-28.27664901	450.8927225	1420.494574	-139.9773559	398.871498	1471.666311	-92.759033	348.480887	1408.865653	-148.0192813	324.6117624	1328.281437	-126.2596959	90.56559118	1338.836931	-48.83628676	100.1875093	1266.361218	-81.79932302	75.72526469	1393.964556	-50.48617332	74.33663341	1387.740948	-145.6838404	57.3015178	1464.954183	-153.7519611	28.96786651	1468.057001	-57.55224411	40.33276749	1521.935375	-85.7250635	35.88947928	1630.573065	155.8898652	664.0822542	1703.78541	93.1736068	658.0559896	1658.69872	143.1256019	578.097743	1681.088388	130.2344758	470.4992853	1681.788027	33.90932835	471.4420059	1701.159591	146.028905	403.8199088	1749.494376	97.96343807	372.0852153	1696.559915	155.397025	363.7932684	1782.308666	125.837295	105.0754077	1780.399093	46.58044596	125.4951858	1717.095567	79.29350631	74.70294906	1864.69915	55.87355549	114.6681245	1848.892551	143.3687015	110.6435932	1908.366106	152.6622596	104.5081326	1923.022359	62.03409965	108.2212493	1965.138024	84.48225282	119.7041415
106	1.00833	1659.253914	-0.000992919	1.24E+03	1547.926503	-160.4625222	1356.31206	1551.947136	163.6853836	1369.641038	1652.788532	-9.995724821	1607.412061	1642.94595	-119.563877	893.790099	1647.812843	121.1976851	885.6691242	1465.268198	-5.695750883	917.2285881	1548.696436	-151.852957	621.6736937	1584.452853	-72.89581202	561.855059	1518.842882	-144.0380039	525.6518164	1471.672087	-128.7803171	463.3879084	1467.310422	-28.27664901	450.1874209	1426.848002	-139.9773559	398.7564332	1477.178823	-92.759033	347.5258881	1413.991759	-148.0192813	324.6993124	1329.545377	-126.2596959	92.01877031	1340.258657	-48.83628676	101.4646892	1267.387445	-81.79932302	78.20758537	1394.950205	-50.48617332	74.70294471	1388.444939	-145.6838404	57.7733855	1465.177663	-153.7519611	28.1631105	1468.468533	-57.55224411	39.47499071	1522.265808	-85.7250635	34.13878338	1641.055258	155.8898652	662.8505672	1714.277033	93.1736068	656.939992	1669.316741	143.1256019	576.9106043	1691.876395	130.2344758	469.3476586	1692.574544	33.90932835	470.2914834	1713.002647	146.028905	403.1061896	1761.993051	97.96343807	372.3932832	1709.244348	155.397025	362.9918014	1800.405996	125.837295	106.1312683	1798.06813	46.58044596	126.5064538	1735.649049	79.29350631	74.75163109	1882.63077	55.87355549	116.9465023	1866.8869	143.3687015	112.6831677	1926.446514	152.6622596	107.4486609	1941.044882	62.03409965	111.3832038	1982.981906	84.48225282	123.502285
107	1.01667	1669.062975	-0.000992919	1.24E+03	1557.542016	-160.4625222	1355.026076	1561.541081	163.6853836	1368.361542	1661.997696	-9.995724821	1606.295388	1653.283105	-119.563877	892.6063058	1658.159299	121.1976851	884.490912	1475.578618	-5.695750883	915.8412249	1557.609151	-151.852957	620.3578342	1592.877891	-72.89581202	560.2503772	1526.975655	-144.0380039	524.5819263	1479.300039	-128.7803171	462.7037093	1474.831161	-28.27664901	449.539131	1433.641715	-139.9773559	398.7301156	1483.07078	-92.759033	346.6289848	1419.494963	-148.0192813	324.9086449	1331.000634	-126.2596959	93.73732368	1341.877135	-48.83628676	102.9948326	1268.585762	-81.79932302	81.12268464	1396.058552	-50.48617332	75.1873591	1389.231793	-145.6838404	58.38486433	1465.386213	-153.7519611	27.31745728	1468.892087	-57.55224411	38.5645593	1522.577883	-85.7250635	32.20395565	1651.675853	155.8898652	661.677154	1724.905105	93.1736068	655.8599422	1680.046887	143.1256019	575.7732946	1702.743667	130.2344758	468.2392001	1703.440612	33.90932835	469.1839144	1724.708345	146.028905	402.3647971	1774.203377	97.96343807	372.4719202	1721.618538	155.397025	362.1933887	1817.044699	125.837295	106.8864611	1814.367876	46.58044596	127.2198923	1752.63858	79.29350631	74.75212878	1899.131727	55.87355549	118.613172	1883.43728	143.3687015	114.1713497	1943.052489	152.6622596	109.6134452	1957.605242	62.03409965	113.7134904	1999.401957	84.48225282	126.3079609
108	1.025	1678.930578	-0.000992919	1.23E+03	1567.190246	-160.4625222	1353.829089	1571.164813	163.6853836	1367.171876	1671.18428	-9.995724821	1605.289815	1663.765604	-119.563877	891.5566259	1668.654544	121.1976851	883.4489044	1486.024826	-5.695750883	914.5122789	1566.852072	-151.852957	619.1473907	1601.678731	-72.89581202	558.7827143	1535.516499	-144.0380039	523.5988822	1487.388041	-128.7803171	462.0722243	1482.822668	-28.27664901	448.9407978	1440.904849	-139.9773559	398.7857295	1489.368968	-92.759033	345.7858279	1425.405066	-148.0192813	325.2364477	1332.681181	-126.2596959	95.72891583	1343.725823	-48.83628676	104.7851637	1269.99752	-81.79932302	84.49001115	1397.311648	-50.48617332	75.79214034	1390.122173	-145.6838404	59.14161758	1465.585067	-153.7519611	26.43028903	1469.333983	-57.55224411	37.59873047	1522.869243	-85.7250635	30.0755749	1662.438412	155.8898652	660.5706647	1735.673461	93.1736068	654.8269005	1690.895589	143.1256019	574.695303	1713.700208	130.2344758	467.1840262	1714.396204	33.90932835	468.1294389	1736.274774	146.028905	401.5866707	1786.127276	97.96343807	372.2938341	1733.670429	155.397025	361.3808707	1832.173528	125.837295	107.2452392	1829.251289	46.58044596	127.5448531	1767.993781	79.29350631	74.62470606	1914.16475	55.87355549	119.5477641	1898.502952	143.3687015	114.9921568	1958.14967	152.6622596	110.867028	1972.672284	62.03409965	115.0725814	2014.376495	84.48225282	127.9700587
